<?xml version="1.0" encoding="UTF-8" standalone="no"?>
<svg
   xmlns:dc="http://purl.org/dc/elements/1.1/"
   xmlns:cc="http://creativecommons.org/ns#"
   xmlns:rdf="http://www.w3.org/1999/02/22-rdf-syntax-ns#"
   xmlns:svg="http://www.w3.org/2000/svg"
   xmlns="http://www.w3.org/2000/svg"
   version="1.1"
   width="144"
   height="48">
  <path
     d="m 72.005671,47.856799 c -4.950929,0 -9.824899,-1.282623 -14.134514,-3.668305 l -0.590006,-0.333485 c -1.308276,-0.718258 -3.103949,-1.66741 -3.796567,-2.719153 -0.743921,-1.103059 -0.974793,-2.33438 -0.615659,-3.488741 0.30783,-1.051756 1.077405,-1.923935 2.103504,-2.360024 4.566139,-1.770028 8.490968,-4.463537 9.850549,-5.438333 V 28.078743 C 63.309482,26.71916 62.514254,24.718265 62.001205,23.358689 61.924245,23.15347 61.821638,22.922598 61.74468,22.717378 61.026411,22.332589 60.513362,21.511711 60.205532,20.870399 l -0.0513,-0.128262 c -0.487397,-1.487843 -1.000446,-3.540042 0.179567,-4.617445 0.153915,-0.153915 0.333482,-0.256525 0.538702,-0.333482 v -5.233105 c 0,-5.7461542 4.668751,-10.41490414 10.414904,-10.41490414 h 1.43654 c 5.746153,0 10.414903,4.66874994 10.414903,10.41490414 v 5.258757 c 0.179568,0.07696 0.359135,0.20522 0.538702,0.333482 1.205666,1.077404 0.692617,3.129602 0.20522,4.591793 l -0.0513,0.128262 c -0.30783,0.666964 -0.820879,1.487844 -1.564801,1.872631 -0.07696,0.179568 -0.179567,0.41044 -0.256524,0.615659 -0.538702,1.359576 -1.33393,3.360471 -2.847425,4.720054 v 1.770015 c 1.35958,0.974796 5.284409,3.668305 9.850549,5.438333 1.051751,0.436089 1.821326,1.308268 2.129156,2.360024 0.333482,1.128703 0.128262,2.385682 -0.615661,3.488741 -0.102604,0.12829 -0.641311,0.666956 -0.949141,0.897836 -5.002232,3.796568 -11.056215,5.823107 -17.571942,5.823107 z M 71.287401,1.1179945 c -5.207452,0 -9.440111,4.2326581 -9.440111,9.4401105 v 5.617892 c 0,0.230872 -0.153915,0.436091 -0.384787,0.487396 -0.179567,0.02566 -0.333482,0.128263 -0.461744,0.230873 -0.564355,0.513049 -0.564355,1.693062 0.07696,3.565694 l 0.02566,0.07696 c 0.359134,0.743921 0.795226,1.256971 1.205666,1.410885 0.128262,0.0513 0.205219,0.128263 0.256524,0.256525 0.102604,0.205221 0.230872,0.564356 0.359136,0.846533 0.513049,1.308275 1.282623,3.283512 2.719161,4.463531 0.102604,0.102577 0.179567,0.230867 0.179567,0.384787 v 2.231762 c 0,0.15392 -0.07696,0.307827 -0.205219,0.384787 -1.154361,0.846534 -5.361367,3.796568 -10.260988,5.694844 -0.743921,0.307841 -1.308276,0.949153 -1.539148,1.744371 -0.256525,0.846534 -0.07696,1.795672 0.487397,2.667865 0.564354,0.846534 2.308722,1.795672 3.463083,2.411326 0.230872,0.12829 0.436093,0.23088 0.61566,0.333484 4.155698,2.33438 8.875755,3.540043 13.647115,3.540043 6.284855,0 12.159271,-1.949593 16.981936,-5.617898 0.205219,-0.153906 0.641311,-0.589995 0.769574,-0.743916 0.513049,-0.795232 0.692616,-1.74437 0.436092,-2.590904 C 89.98806,37.159727 89.423706,36.544059 88.654132,36.210574 83.75451,34.312298 79.573157,31.362264 78.393143,30.51573 78.264881,30.413154 78.187924,30.284863 78.187924,30.130943 v -2.231762 c 0,-0.15392 0.07696,-0.282182 0.179567,-0.384787 1.436538,-1.180019 2.206112,-3.155256 2.719163,-4.463531 0.128262,-0.30783 0.256524,-0.641312 0.359134,-0.846533 0.0513,-0.102604 0.153915,-0.20522 0.256525,-0.256525 0.410439,-0.153914 0.846531,-0.692616 1.205666,-1.436538 l 0.02566,-0.07696 c 0.615659,-1.846979 0.641311,-3.00134 0.0513,-3.540041 -0.128262,-0.128263 -0.282177,-0.20522 -0.461745,-0.230873 -0.230872,-0.0513 -0.384786,-0.256524 -0.384786,-0.487396 v -5.617892 c 0,-5.2074524 -4.232659,-9.4401105 -9.44011,-9.4401105 h -1.410887 z"
     style="fill:#ffffff;fill-opacity:0.7" />
  <path
     d="m 120,39.985446 c -8.83091,0 -15.98545,-7.18447 -15.98545,-15.985445 0,-8.800977 7.18447,-15.985447 15.98545,-15.985447 8.80098,0 15.98545,7.18447 15.98545,15.985447 0,8.800975 -7.15454,15.985445 -15.98545,15.985445 z m 0,-31.0129626 c -8.29208,0 -15.02752,6.7354406 -15.02752,15.0275176 0,8.292076 6.73544,15.027516 15.02752,15.027516 8.29208,0 15.02752,-6.73544 15.02752,-15.027516 0,-8.292077 -6.73544,-15.0275176 -15.02752,-15.0275176 z m -0.65858,21.9126346 c -0.0599,0.269417 -0.29935,0.478965 -0.56877,0.478965 h -0.23948 c -0.26942,0 -0.44903,-0.209548 -0.38916,-0.478965 l 2.0356,-10.178 c 0.0599,-0.269417 0.29935,-0.478965 0.56877,-0.478965 h 0.23949 c 0.26941,0 0.44902,0.209548 0.38915,0.478965 l -2.0356,10.178 z m 2.87379,-14.30907 c -0.0599,0.269417 -0.29935,0.478964 -0.56877,0.478964 h -0.23948 c -0.26942,0 -0.44903,-0.209547 -0.38916,-0.478964 l 0.14968,-0.778318 c 0.0599,-0.269418 0.29935,-0.478965 0.56877,-0.478965 h 0.23948 c 0.26942,0 0.44903,0.209547 0.38916,0.478965 l -0.14968,0.778318 z"
     style="fill:#ffffff;fill-opacity:0.7" />
  <path
     d="m 19.092652,47.910746 c -0.0257,0 -0.07709,0 -0.102785,0 C 8.6598054,45.598046 1.3619526,36.475731 1.2591659,25.734525 1.1563793,16.458028 6.5783756,8.3892768 15.443725,4.6632608 l 0.0514,-2.2356099 c 0.0257,-1.2848332 1.07926,-2.33839642 2.389789,-2.33839642 1.284833,0 2.338397,0.97647322 2.415487,2.20991312 l 0.07709,0.9764733 c 1.207743,-0.1798767 2.415486,-0.2826633 3.648926,-0.2826633 12.539973,0 22.715853,10.2015754 22.715853,22.7158514 0,9.096619 -5.3963,17.293854 -13.773413,20.891387 -0.15418,0.0514 -0.334056,0.0257 -0.462539,-0.07709 -0.128484,-0.102785 -0.231271,-0.231269 -0.231271,-0.38545 l 0.102785,-4.16286 c 0.0257,-1.413316 0.38545,-2.826633 1.002171,-4.111465 l 0.205573,-0.38545 c 0.0514,-0.102785 0.07709,-0.205573 0.128483,-0.308359 0.359753,-1.130653 0.565327,-2.287003 0.668114,-3.46905 l 0.205573,-4.188557 c 0.05139,-0.950776 0.0257,-1.901553 -0.0514,-2.826633 l -0.07709,-0.719507 c -0.128482,-1.33623 -0.256965,-2.852334 -0.411145,-3.597537 l -0.128483,-0.488237 c -0.102787,-0.436843 -0.38545,-0.796596 -0.745204,-1.027867 l -0.668112,-0.411145 c -0.334058,-0.205574 -0.719508,-0.334058 -1.104958,-0.334058 -0.102785,0 -0.179876,-0.0257 -0.256966,-0.07709 -0.102785,-0.07709 -0.179876,-0.102785 -0.282664,-0.128484 -0.23127,-0.07709 -0.616719,-0.231269 -0.745203,-0.69381 -0.0257,-0.102785 -0.0514,-0.154179 -0.102785,-0.205573 -0.513934,-0.796597 -1.361923,-1.336227 -2.3127,-1.490406 -0.23127,-0.0257 -0.46254,0.0257 -0.61672,0.179876 -0.256967,0.23127 -0.591024,0.30836 -0.899384,0.179877 -0.30836,-0.128483 -0.513933,-0.38545 -0.565327,-0.719507 -0.05139,-0.642417 -0.53963,-1.130653 -1.130653,-1.23344 l -0.565327,-0.102785 c -0.411147,-0.07709 -0.822292,0.0514 -1.130653,0.334056 l -1.15635,0.92508 c -0.205573,0.205573 -0.565327,0.282664 -0.873686,0.15418 -0.30836,-0.128483 -0.513933,-0.411146 -0.53963,-0.745203 l -0.231271,-4.214257 -0.61672,-8.3771122 c 0,0 0,-0.025697 0,-0.025697 l -0.102786,-1.516095 c -0.05139,-0.7195065 -0.668114,-1.2848331 -1.387621,-1.2848331 -0.796597,0 -1.413316,0.61672 -1.413316,1.3619232 l -0.179877,8.6597751 -0.256966,10.587026 c 0,0.128483 -0.07709,0.282664 -0.179877,0.359753 -0.102785,0.102785 -0.23127,0.128483 -0.38545,0.128483 -0.205573,-0.0257 -0.668114,0.128484 -1.053564,0.38545 -0.179877,0.128484 -0.308359,0.334058 -0.334056,0.539631 -0.102785,0.719506 -0.282663,1.46471 -0.565327,2.338397 -0.07709,0.23127 -0.128483,0.488236 -0.15418,0.719505 l 0.231271,4.522614 c 0,0.0257 0,0.102785 0,0.128483 0.256965,2.08143 0.693809,2.62106 1.5418,3.70032 l 3.648925,4.753882 c 0.513934,0.719507 0.796597,1.541799 0.796597,2.415487 v 5.730356 c 0,0.102785 -0.0257,0.205573 -0.07709,0.282663 -0.102787,0.128484 -0.256966,0.23127 -0.411146,0.23127 z M 15.392332,5.7425207 C 7.1693989,9.3914449 2.1328525,16.971963 2.2356392,25.708829 2.3384259,35.781921 9.0452555,44.33891 18.604415,46.780093 v -5.113636 c 0,-0.642417 -0.205574,-1.284833 -0.591024,-1.824464 l -3.597533,-4.676792 c -0.92508,-1.15635 -1.490406,-1.850159 -1.773069,-4.265647 0,-0.0257 0,-0.128483 0,-0.179876 l -0.205573,-4.574007 c 0.0257,-0.385449 0.102785,-0.693808 0.205573,-1.002169 0.256966,-0.822293 0.436842,-1.516103 0.513933,-2.15852 0.07709,-0.513933 0.359753,-0.976474 0.7709,-1.259136 0.334056,-0.231271 0.7709,-0.436844 1.182047,-0.513934 L 15.392332,5.7425207 z M 31.478445,19.130482 c 0.513933,0.0257 1.027867,0.179876 1.490406,0.46254 l 0.668114,0.411147 c 0.591023,0.38545 1.002169,0.950777 1.182046,1.618889 l 0.128484,0.513934 c 0.154179,0.84799 0.308359,2.38979 0.436842,3.726016 l 0.07709,0.719507 c 0.102785,1.00217 0.102785,2.00434 0.07709,2.980814 l -0.205573,4.188556 c -0.102785,1.259136 -0.334057,2.492576 -0.693811,3.700319 -0.05139,0.15418 -0.102785,0.30836 -0.179876,0.436844 l -0.205574,0.38545 c -0.565326,1.130652 -0.873686,2.415485 -0.899383,3.700318 l -0.07709,3.39196 c 7.580516,-3.571836 12.462882,-11.203745 12.462882,-19.657947 0,-11.974646 -9.739036,-21.7393782 -21.739379,-21.7393782 -1.207743,0 -2.38979,0.1027872 -3.571836,0.2826633 l 0.591023,7.9402689 0.23127,3.931589 0.925079,-0.745203 c 0.488238,-0.462539 1.233441,-0.69381 1.952947,-0.565327 l 0.565327,0.102785 c 0.976473,0.179877 1.747373,0.92508 1.92725,1.875857 0.359754,-0.256967 0.796597,-0.359753 1.23344,-0.282664 1.259137,0.179877 2.364094,0.899383 3.032207,1.92725 0.07709,0.128483 0.15418,0.282664 0.205573,0.46254 0,0 0.102785,0.0257 0.15418,0.05139 0,0.07709 0.128484,0.102785 0.23127,0.179876 z"
     style="fill:#ffffff;fill-opacity:0.7" />
</svg>
