<?xml version="1.0" encoding="UTF-8" standalone="no"?>
<svg
   xmlns:dc="http://purl.org/dc/elements/1.1/"
   xmlns:cc="http://creativecommons.org/ns#"
   xmlns:rdf="http://www.w3.org/1999/02/22-rdf-syntax-ns#"
   xmlns:svg="http://www.w3.org/2000/svg"
   xmlns="http://www.w3.org/2000/svg"
   height="30.007776"
   width="30.000004"
   version="1.1"
   id="svg2"
   viewBox="0 0 30.000004 30.007776">
  <metadata
     id="metadata69">
    <rdf:RDF>
      <cc:Work
         rdf:about="">
        <dc:format>image/svg+xml</dc:format>
        <dc:type
           rdf:resource="http://purl.org/dc/dcmitype/StillImage" />
        <dc:title></dc:title>
      </cc:Work>
    </rdf:RDF>
  </metadata>
  <defs
     id="defs4">
    <linearGradient
       gradientTransform="matrix(0.13428055,0,0,0.13428055,-2.1525643,-2.12807)"
       gradientUnits="userSpaceOnUse"
       y2="169"
       x2="87"
       y1="87"
       x1="87"
       id="blueFade">
      <stop
         id="stop7"
         stop-color="#81b4e0"
         offset="0%" />
      <stop
         id="stop9"
         stop-color="#0c5a94"
         offset="100%" />
    </linearGradient>
    <linearGradient
       gradientTransform="matrix(0.13428055,0,0,0.13428055,-2.1525643,-2.12807)"
       y2="107"
       x2="128"
       y1="16"
       x1="128"
       gradientUnits="userSpaceOnUse"
       id="redFade">
      <stop
         id="stop12"
         stop-color="#f06b59"
         offset="0%" />
      <stop
         id="stop14"
         stop-color="#df2227"
         offset="100%" />
    </linearGradient>
    <linearGradient
       gradientTransform="matrix(0.13428055,0,0,0.13428055,-2.1525643,-2.12807)"
       y2="149"
       x2="118"
       y1="225"
       x1="72"
       gradientUnits="userSpaceOnUse"
       id="greenFade">
      <stop
         id="stop17"
         stop-color="#388b41"
         offset="0%" />
      <stop
         id="stop19"
         stop-color="#4cb749"
         offset="100%" />
    </linearGradient>
    <linearGradient
       gradientTransform="matrix(0.13428055,0,0,0.13428055,-2.1525643,-2.12807)"
       y2="102"
       x2="138"
       y1="220"
       x1="187"
       gradientUnits="userSpaceOnUse"
       id="yellowFade">
      <stop
         id="stop22"
         stop-color="#e4b022"
         offset="0%" />
      <stop
         id="stop24"
         stop-color="#fcd209"
         offset="30%" />
    </linearGradient>
    <linearGradient
       gradientTransform="matrix(0.13428055,0,0,0.13428055,-2.1525643,-2.12807)"
       y2="60"
       x2="80"
       y1="140"
       x1="80"
       gradientUnits="userSpaceOnUse"
       id="redShadow">
      <stop
         id="stop27"
         stop-opacity=".15"
         stop-color="black"
         offset="0%" />
      <stop
         id="stop29"
         stop-opacity=".06"
         stop-color="black"
         offset="30%" />
      <stop
         id="stop31"
         stop-opacity=".03"
         stop-color="black"
         offset="100%" />
    </linearGradient>
    <linearGradient
       gradientTransform="matrix(0.13428055,0,0,0.13428055,-2.1525643,-2.12807)"
       y2="217"
       x2="109"
       y1="161"
       x1="164"
       gradientUnits="userSpaceOnUse"
       id="greenShadow">
      <stop
         id="stop34"
         stop-opacity=".15"
         stop-color="black"
         offset="0%" />
      <stop
         id="stop36"
         stop-opacity=".06"
         stop-color="black"
         offset="30%" />
      <stop
         id="stop38"
         stop-opacity=".03"
         stop-color="black"
         offset="100%" />
    </linearGradient>
    <linearGradient
       gradientTransform="matrix(0.13428055,0,0,0.13428055,-2.1525643,-2.12807)"
       y2="100"
       x2="147"
       y1="179"
       x1="139"
       gradientUnits="userSpaceOnUse"
       id="yellowShadow">
      <stop
         id="stop41"
         stop-opacity=".15"
         stop-color="black"
         offset="0%" />
      <stop
         id="stop43"
         stop-opacity=".06"
         stop-color="black"
         offset="30%" />
      <stop
         id="stop45"
         stop-opacity=".03"
         stop-color="black"
         offset="100%" />
    </linearGradient>
  </defs>
  <circle
     style="fill:#ffffff"
     id="circle47"
     r="14.770861"
     cy="15.059843"
     cx="15.035346" />
  <path
     style="fill:#000000;fill-opacity:0.1"
     id="path49"
     d="m 24.434984,17.74545 a 9.3996383,9.3996383 0 1 0 -18.7992763,0 l 2.685611,0 a 6.7140274,6.7140274 0 1 1 13.4280543,0" />
  <circle
     style="fill:#000000;fill-opacity:0.1"
     id="circle51"
     r="5.1026611"
     cy="16.939756"
     cx="15.706748" />
  <circle
     style="fill:url(#blueFade)"
     id="circle53"
     r="5.5055027"
     cy="15.059843"
     cx="15.035346" />
  <path
     style="fill:url(#redFade)"
     id="path55"
     d="M 28.463401,8.34581 A 15.039421,15.039421 0 0 0 2.5472547,6.60016 l 6.042625,10.47389 A 6.7140274,6.7140274 0 0 1 14.901066,8.34581" />
  <path
     style="fill:url(#greenFade)"
     id="path57"
     d="M 2.5472547,6.60016 A 15.039421,15.039421 0 0 0 13.826821,29.96498 L 20.138007,19.22253 A 6.7140274,6.7140274 0 0 1 8.5898797,17.07405" />
  <path
     style="fill:url(#yellowFade)"
     id="path59"
     d="M 13.826821,29.96498 A 15.039421,15.039421 0 0 0 28.463401,8.34581 l -13.562335,0 a 6.7140274,6.7140274 0 0 1 5.236941,10.87672" />
  <path
     style="fill:url(#redShadow)"
     id="path61"
     d="m 2.5472547,6.60016 6.042625,10.47389 a 6.7140274,6.7140274 0 0 1 0.268561,-4.56554 L 2.8158157,6.19732" />
  <path
     style="fill:url(#greenShadow)"
     id="path63"
     d="M 13.826821,29.96498 20.138007,19.22253 A 6.7140274,6.7140274 0 0 1 16.243871,21.5053 L 13.55826,29.96498" />
  <path
     style="fill:url(#yellowShadow)"
     id="path65"
     d="m 28.463401,8.34581 -13.562335,0 a 6.7140274,6.7140274 0 0 1 5.236941,2.55133 l 8.593955,-2.14849" />
</svg>
