<?xml version="1.0" encoding="utf-8"?>
<!-- Generator: Adobe Illustrator 17.1.0, SVG Export Plug-In . SVG Version: 6.00 Build 0)  -->
<!DOCTYPE svg PUBLIC "-//W3C//DTD SVG 1.1//EN" "http://www.w3.org/Graphics/SVG/1.1/DTD/svg11.dtd" [
	<!ENTITY st0 "fill:none;stroke:#65BC46;stroke-miterlimit:10;">
]>
<svg version="1.1" id="Capa_1" xmlns="http://www.w3.org/2000/svg" xmlns:xlink="http://www.w3.org/1999/xlink" x="0px" y="0px"
	 viewBox="0 0 17.2 56.8" style="enable-background:new 0 0 17.2 56.8;" xml:space="preserve">
<path style="&st0;" d="M8.6,0.5c4.5,0,8.1,3.6,8.1,8.1v21.5c0,4.5-3.6,8.1-8.1,8.1c-4.5,0-8.1-3.6-8.1-8.1V8.6
	C0.5,4.1,4.1,0.5,8.6,0.5z M6.9,56.8V38.2 M10.3,56.8V38.2 M12.4,8.6c0-2.1-1.7-3.8-3.8-3.8c-2.1,0-3.8,1.7-3.8,3.8
	c0,2.1,1.7,3.8,3.8,3.8C10.7,12.3,12.4,10.6,12.4,8.6z M4.9,19.4c0,2.1,1.7,3.8,3.8,3.8c2.1,0,3.8-1.7,3.8-3.8
	c0-2.1-1.7-3.8-3.8-3.8C6.5,15.6,4.9,17.3,4.9,19.4z M4.9,30.2c0,2.1,1.7,3.8,3.8,3.8s3.8-1.7,3.8-3.8c0-2.1-1.7-3.8-3.8-3.8
	S4.9,28.1,4.9,30.2z"/>
</svg>
